#!OML:ASF F:\VICON\USERDATA\INSTALL\Justin_Nancy\Justin_Nancy.ASF
:FULLY-SPECIFIED
:DEGREES
51
root -7.56544 16.622 -6.89317 2.10202 26.9014 -8.89928
lowerback 10.0956 -0.0284808 -7.0942
upperback 0.439428 -0.666811 3.3042
thorax -5.09663 -0.11838 7.63239
lowerneck -21.8998 -5.41488 -9.5312
upperneck 15.8473 -7.00967 12.1858
head 9.39879 -2.54119 4.79242
rclavicle 4.63168e-014 -1.90833e-014
rhumerus -43.8882 18.5773 -83.2402
rradius 103.821
rwrist -31.3577
rhand -7.39529 22.8736
rfingers 7.12502
rthumb 18.4906 -6.26757
lclavicle 4.63168e-014 -1.90833e-014
lhumerus -32.2625 -6.77351 87.7277
lradius 103.183
lwrist 38.4504
lhand -14.0439 13.5622
lfingers 7.12502
lthumb 12.0868 43.1931
rfemur -11.7773 -12.2197 15.8086
rtibia 86.4235
rfoot 7.71152 -6.32499
rtoes 6.25002
lfemur -21.0632 10.4852 -30.5448
ltibia 41.4518
lfoot -24.5028 5.68237
ltoes 20.1576
52
root -7.48762 16.587 -6.56543 2.58925 27.7401 -8.60677
lowerback 10.2447 -0.321899 -7.35092
upperback 0.235661 -1.1118 3.1349
thorax -5.31412 -0.317777 7.66845
lowerneck -21.5098 -4.98331 -8.70053
upperneck 15.7708 -6.60761 11.7882
head 9.2092 -2.35788 4.57285
rclavicle -1.43125e-014 -5.1684e-014
rhumerus -44.3927 17.998 -83.3082
rradius 103.802
rwrist -31.7675
rhand -6.70396 23.0009
rfingers 7.12502
rthumb 19.1555 -6.07574
lclavicle -1.43125e-014 -5.1684e-014
lhumerus -30.9465 -7.67571 87.6634
lradius 103.87
lwrist 37.3944
lhand -13.6432 13.1622
lfingers 7.12502
lthumb 12.4731 42.77
rfemur -15.4185 -13.2481 15.2889
rtibia 88.7148
rfoot 6.8663 -6.68887
rtoes 7.59865
lfemur -20.3748 10.3546 -30.3335
ltibia 41.9989
lfoot -25.5497 5.24219
ltoes 19.4314
53
root -7.38461 16.5525 -6.22731 3.09234 28.7743 -7.85484
lowerback 10.3942 -0.69773 -7.72319
upperback 0.102239 -1.68867 2.83639
thorax -5.4318 -0.587339 7.64853
lowerneck -21.394 -4.85445 -8.27406
upperneck 16.0076 -6.55467 11.6142
head 9.24279 -2.32444 4.45269
rclavicle 7.55382e-015 -1.35174e-014
rhumerus -44.999 17.5425 -83.4175
rradius 104.063
rwrist -32.4133
rhand -6.05664 23.0096
rfingers 7.12502
rthumb 19.7779 -6.00413
lclavicle 7.55382e-015 -1.35174e-014
lhumerus -29.9258 -8.40663 87.712
lradius 104.627
lwrist 36.0324
lhand -12.3022 12.403
lfingers 7.12502
lthumb 13.7658 41.9276
rfemur -18.0342 -14.5402 14.213
rtibia 90.3042
rfoot 6.36456 -6.70603
rtoes 7.04174
lfemur -19.1088 9.83938 -30.4676
ltibia 42.2717
lfoot -26.723 4.26865
ltoes 19.5811
54
root -7.28617 16.5216 -5.89548 3.2975 29.4225 -7.68365
lowerback 10.6029 -0.924275 -7.61858
upperback -0.0553628 -2.00589 2.69068
thorax -5.66635 -0.731745 7.48752
lowerneck -21.4691 -4.91694 -8.11633
upperneck 16.4243 -6.71618 11.57
head 9.41121 -2.38441 4.39395
rclavicle 2.70347e-014 -7.95139e-016
rhumerus -45.9568 16.9079 -83.6202
rradius 104.743
rwrist -33.3004
rhand -5.62294 22.6581
rfingers 7.12502
rthumb 20.1948 -6.31215
lclavicle 2.70347e-014 -7.95139e-016
lhumerus -28.8257 -9.11355 87.9205
lradius 105.142
lwrist 34.4849
lhand -10.6833 11.9643
lfingers 7.12502
lthumb 15.3256 41.3765
rfemur -20.1677 -15.3624 14.0996
rtibia 91.2575
rfoot 5.96513 -6.94945
rtoes 6.49295
lfemur -17.8817 9.67957 -29.9888
ltibia 42.3705
lfoot -27.4451 3.34492
ltoes 18.5933
55
root -7.17456 16.549 -5.56215 3.22239 29.7147 -8.14116
lowerback 10.8078 -1.0368 -7.16147
upperback -0.1442 -2.10565 2.83911
thorax -5.8679 -0.778927 7.41141
lowerneck -21.4913 -4.85823 -7.96516
upperneck 16.5147 -6.6301 11.3052
head 9.41993 -2.36132 4.28883
rclavicle 1.47101e-014 3.57812e-014
rhumerus -46.8442 16.4316 -83.7243
rradius 105.629
rwrist -34.2156
rhand -4.8656 22.5248
rfingers 7.12502
rthumb 20.9225 -6.36686
lclavicle 1.47101e-014 3.57812e-014
lhumerus -27.5674 -9.65038 88.3461
lradius 105.584
lwrist 33.1176
lhand -10.9533 11.8875
lfingers 7.12502
lthumb 15.0655 41.3193
rfemur -23.2571 -15.4996 14.905
rtibia 91.8808
rfoot 5.87507 -7.54232
rtoes 9.52721
lfemur -16.5684 9.74537 -28.8877
ltibia 42.2483
lfoot -27.6442 3.01924
ltoes 16.2712
56
root -7.06421 16.5499 -5.22777 3.43399 29.9359 -8.08851
lowerback 10.7676 -1.18956 -7.27167
upperback -0.169683 -2.31113 3.00566
thorax -5.8249 -0.876005 7.68455
lowerneck -21.4475 -4.61429 -8.0534
upperneck 16.3445 -6.20843 11.1178
head 9.30177 -2.19606 4.29807
rclavicle -4.11484e-014 3.97569e-015
rhumerus -47.4631 16.6083 -83.7641
rradius 106.44
rwrist -35.1241
rhand -4.56812 22.6446
rfingers 7.12502
rthumb 21.2083 -6.21522
lclavicle -4.11484e-014 3.97569e-015
lhumerus -26.6319 -9.96712 88.8581
lradius 106.215
lwrist 31.8978
lhand -11.7449 11.5184
lfingers 7.12502
lthumb 14.3028 41.0058
rfemur -26.0711 -15.8017 15.2558
rtibia 92.139
rfoot 6.14609 -7.49113
rtoes 7.09117
lfemur -15.3112 9.51294 -28.3277
ltibia 42.1548
lfoot -27.6927 2.56655
ltoes 13.5881
57
root -6.94584 16.5629 -4.88841 3.70759 30.0775 -8.04018
lowerback 10.709 -1.32698 -7.23767
upperback -0.348711 -2.48578 3.0862
thorax -5.94906 -0.95006 7.78099
lowerneck -21.2322 -4.36231 -7.9785
upperneck 16.3352 -5.88073 11.0538
head 9.22008 -2.05219 4.31268
rclavicle -3.08116e-014 2.62396e-014
rhumerus -48.2576 16.7493 -83.9088
rradius 107.152
rwrist -35.8321
rhand -4.75423 23.1159
rfingers 7.12502
rthumb 21.0295 -5.76388
lclavicle -3.08116e-014 2.62396e-014
lhumerus -26.1965 -10.3696 89.2956
lradius 106.923
lwrist 30.7018
lhand -11.4075 11.4451
lfingers 7.12502
lthumb 14.6279 40.9092
rfemur -28.6787 -15.907 15.6806
rtibia 91.9348
rfoot 6.29339 -7.07568
rtoes 2.98471
lfemur -14.0996 8.95405 -27.874
ltibia 41.913
lfoot -27.4559 2.26107
ltoes 12.2542
58
root -6.81883 16.6024 -4.54765 3.90574 30.2381 -8.03798
lowerback 10.7551 -1.47513 -7.19741
upperback -0.522661 -2.67664 3.22643
thorax -6.1213 -1.02868 7.94737
lowerneck -21.2309 -4.1765 -7.91923
upperneck 16.5513 -5.60586 10.8079
head 9.25373 -1.94413 4.26085
rclavicle -2.14687e-014 -1.59028e-015
rhumerus -48.9722 16.8365 -83.9832
rradius 107.824
rwrist -36.3995
rhand -4.45699 22.8835
rfingers 7.12502
rthumb 21.3151 -5.96433
lclavicle -2.14687e-014 -1.59028e-015
lhumerus -25.8269 -10.6945 89.7424
lradius 107.581
lwrist 30.1021
lhand -10.9431 11.7273
lfingers 7.12502
lthumb 15.0753 41.1584
rfemur -31.1048 -15.7253 16.2241
rtibia 91.2561
rfoot 5.24857 -7.40529
rtoes 3.79862
lfemur -12.8028 8.28268 -27.4229
ltibia 41.6378
lfoot -26.8367 2.27713
ltoes 11.2302
59
root -6.68651 16.6652 -4.19497 4.39247 30.3749 -7.65334
lowerback 10.7494 -1.68057 -7.44052
upperback -0.769386 -2.98931 3.21434
thorax -6.31363 -1.15678 8.12939
lowerneck -21.2358 -3.93713 -7.59221
upperneck 16.7144 -5.27989 10.3127
head 9.25025 -1.82281 4.08154
rclavicle -8.17999e-014 -5.56597e-015
rhumerus -49.7111 16.9372 -84.3245
rradius 108.42
rwrist -36.5645
rhand -3.44391 22.8381
rfingers 7.12502
rthumb 22.2879 -5.8966
lclavicle -8.17999e-014 -5.56597e-015
lhumerus -25.5707 -10.8658 90.0426
lradius 108.049
lwrist 29.7325
lhand -11.3091 11.4664
lfingers 7.12502
lthumb 14.7228 40.9236
rfemur -33.2503 -15.3596 16.5248
rtibia 90.076
rfoot 3.607 -8.0815
rtoes 3.80738
lfemur -11.4887 7.68925 -27.2904
ltibia 41.1314
lfoot -25.7634 1.96711
ltoes 10.5177
60
root -6.54915 16.7327 -3.84045 4.82116 30.3068 -7.32654
lowerback 11.2025 -1.91073 -7.15367
upperback -1.36737 -3.32857 2.86063
thorax -7.18642 -1.27379 7.68443
lowerneck -20.9145 -3.61467 -6.98079
upperneck 16.9721 -5.00068 10.0334
head 9.22974 -1.68755 3.92661
rclavicle 3.76697e-014 3.49861e-014
rhumerus -51.1044 16.8866 -85.5432
rradius 109.037
rwrist -36.0868
rhand -2.73676 23.2353
rfingers 7.12502
rthumb 22.9666 -5.41667
lclavicle 3.76697e-014 3.49861e-014
lhumerus -26.1361 -11.1742 89.8991
lradius 108.549
lwrist 29.7009
lhand -12.34 10.959
lfingers 7.12502
lthumb 13.7293 40.486
rfemur -35.2234 -14.6962 16.8755
rtibia 88.5705
rfoot 2.22464 -8.48791
rtoes -0.800122
lfemur -10.0209 7.09119 -27.1405
ltibia 40.232
lfoot -24.0314 1.25229
ltoes 10.6605
61
root -6.38766 16.8187 -3.47043 5.16336 30.3064 -6.59703
lowerback 10.9939 -1.98711 -7.87272
upperback -1.27698 -3.50258 3.00694
thorax -6.89096 -1.34748 8.26569
lowerneck -21.2459 -3.54912 -7.09605
upperneck 17.0476 -4.76134 9.5847
head 9.27986 -1.62443 3.82305
rclavicle -3.3197e-014 -2.22639e-014
rhumerus -51.2692 17.2937 -85.4564
rradius 109.429
rwrist -35.7902
rhand -2.64345 23.1586
rfingers 7.12502
rthumb 23.0561 -5.48217
lclavicle -3.3197e-014 -2.22639e-014
lhumerus -25.9513 -11.2755 90.5869
lradius 108.864
lwrist 29.6433
lhand -11.9812 10.2524
lfingers 7.12502
lthumb 14.0751 39.7558
rfemur -36.5538 -14.14 16.5121
rtibia 86.6404
rfoot 0.877477 -8.12403
rtoes -0.994286
lfemur -8.16388 6.38617 -27.3669
ltibia 39.329
lfoot -21.6872 1.08318
ltoes 5.51623
